<?xml version="1.0" encoding="utf-8"?>
<!-- Generator: Adobe Illustrator 24.1.0, SVG Export Plug-In . SVG Version: 6.00 Build 0)  -->
<svg version="1.1" id="Layer_1" xmlns="http://www.w3.org/2000/svg" xmlns:xlink="http://www.w3.org/1999/xlink" x="0px" y="0px"
	 viewBox="0 0 86 60" style="enable-background:new 0 0 86 60;" xml:space="preserve">
<style type="text/css">
	.st0{fill-rule:evenodd;clip-rule:evenodd;fill:#FFFFFF;}
	.st1{fill:#D7D7D7;}
	.st2{fill:#2557D6;}
</style>
<desc>Created with Sketch.</desc>
<g>
	<path class="st0" d="M8,5.5h69c1.7,0,3,1.3,3,3v43c0,1.7-1.3,3-3,3H8c-1.7,0-3-1.3-3-3v-43C5,6.8,6.3,5.5,8,5.5z"/>
	<path class="st1" d="M8,5.5V6h69c1.4,0,2.5,1.1,2.5,2.5v43c0,1.4-1.1,2.5-2.5,2.5H8c-1.4,0-2.5-1.1-2.5-2.5v-43C5.5,7.1,6.6,6,8,6
		V5.5V5C6.1,5,4.5,6.6,4.5,8.5v43C4.5,53.4,6.1,55,8,55h69c1.9,0,3.5-1.6,3.5-3.5v-43C80.5,6.6,78.9,5,77,5H8V5.5z"/>
	<path class="st2" d="M56.9,20.9l-1.2,2.8h2.4L56.9,20.9z M43.3,22.6c0.2-0.1,0.4-0.4,0.4-0.7c0-0.3-0.1-0.5-0.4-0.6
		c-0.2-0.1-0.5-0.1-0.8-0.1h-2.1v1.5h2.1C42.8,22.7,43.1,22.7,43.3,22.6z M16.4,20.9l-1.2,2.8h2.3L16.4,20.9z M70.5,38.5h-3.3V37
		h3.3c0.3,0,0.6,0,0.7-0.2c0.1-0.1,0.2-0.3,0.2-0.5s-0.1-0.4-0.2-0.5c-0.1-0.1-0.3-0.2-0.6-0.2c-1.6-0.1-3.6,0-3.6-2.1
		c0-1,0.7-2.1,2.4-2.1h3.4V30h-3.2c-1,0-1.6,0.2-2.1,0.6V30h-4.7c-0.7,0-1.6,0.2-2,0.6V30h-8.3v0.6c-0.7-0.5-1.8-0.6-2.3-0.6h-5.5
		v0.6C44.2,30.1,43,30,42.3,30h-6.2l-1.4,1.5L33.4,30h-9.2v9.6h9l1.5-1.5l1.4,1.5h5.6v-2.3h0.5c0.7,0,1.6,0,2.4-0.3v2.6h4.6v-2.5
		h0.2c0.3,0,0.3,0,0.3,0.3v2.2h13.9c0.9,0,1.8-0.2,2.3-0.6v0.6h4.4c0.9,0,1.8-0.1,2.5-0.4v-1.8C72.4,38.2,71.6,38.5,70.5,38.5z
		 M42.2,36.2h-2.1v2.3h-3.3l-2.1-2.3l-2.2,2.3h-6.8v-6.9h6.9l2.1,2.3l2.2-2.3h5.5c1.4,0,2.9,0.4,2.9,2.3
		C45.1,35.8,43.7,36.2,42.2,36.2z M52.4,35.9c0.2,0.3,0.3,0.7,0.3,1.3v1.4H51v-0.9c0-0.4,0-1-0.3-1.4c-0.2-0.2-0.6-0.3-1.3-0.3h-1.8
		v2.5h-1.7v-6.9h3.9c0.9,0,1.5,0,2.1,0.3c0.5,0.3,0.9,0.7,0.9,1.5c0,1.1-0.8,1.7-1.2,1.8C52,35.5,52.3,35.7,52.4,35.9z M59.5,33.1
		h-4v1.3h3.9v1.4h-3.9v1.4h4v1.4h-5.7v-6.9h5.7V33.1z M63.8,38.5h-3.3V37h3.3c0.3,0,0.6,0,0.7-0.2c0.1-0.1,0.2-0.3,0.2-0.5
		s-0.1-0.4-0.2-0.5c-0.1-0.1-0.3-0.2-0.6-0.2c-1.6-0.1-3.6,0-3.6-2.1c0-1,0.7-2.1,2.4-2.1h3.4v1.5H63c-0.3,0-0.5,0-0.7,0.1
		S62,33.3,62,33.5c0,0.3,0.2,0.4,0.4,0.5c0.2,0.1,0.4,0.1,0.7,0.1H64c0.9,0,1.6,0.2,1.9,0.6c0.3,0.3,0.5,0.8,0.5,1.5
		C66.5,37.8,65.6,38.5,63.8,38.5z M50.6,33.2C50.4,33,50.1,33,49.8,33h-2.1v1.6h2.1c0.3,0,0.6,0,0.8-0.1c0.2-0.1,0.4-0.4,0.4-0.7
		S50.8,33.3,50.6,33.2z M69.7,33c-0.3,0-0.5,0-0.7,0.1c-0.2,0.1-0.2,0.3-0.2,0.5c0,0.3,0.2,0.4,0.4,0.5c0.2,0.1,0.4,0.1,0.7,0.1h0.9
		c0.9,0,1.6,0.2,1.9,0.6l0.2,0.2v-2H69.7z M42.2,33H40v1.8h2.2c0.7,0,1.1-0.3,1.1-0.9C43.3,33.3,42.9,33,42.2,33z M27.4,33v1.3h3.7
		v1.4h-3.7v1.4h4.2l1.9-2l-1.9-2L27.4,33L27.4,33z M38.3,37.9v-5.5l-2.6,2.7L38.3,37.9z M27.5,26.8V28h14.3v-2.5h0.3
		c0.2,0,0.2,0,0.2,0.3V28h7.4v-0.6c0.6,0.3,1.5,0.6,2.7,0.6h3.1l0.7-1.5h1.5l0.6,1.5h6v-1.5l0.9,1.5H70v-9.6h-4.7v1.1l-0.7-1.1h-4.9
		v1.1l-0.6-1.1h-6.6c-1.1,0-2.1,0.1-2.8,0.6v-0.6h-4.5V19c-0.5-0.4-1.2-0.6-1.9-0.6H26.7l-1.1,2.5l-1.1-2.5h-5.2v1.1l-0.6-1.1h-4.4
		L12.2,23v3.7l3.1-6.9h2.5l2.9,6.5v-6.5h2.8l2.2,4.7l2.1-4.7h2.8v6.9h-1.7v-5.4l-2.5,5.4h-1.5l-2.5-5.4v5.4h-3.5L18.2,25h-3.6
		L14,26.6h-1.9V28H15l0.7-1.5h1.5l0.7,1.5h5.7v-1.2L24,28h3L27.5,26.8z M50,20.5c0.6-0.6,1.4-0.8,2.6-0.8h1.7v1.5h-1.6
		c-0.6,0-1,0.1-1.3,0.4c-0.3,0.3-0.5,0.8-0.5,1.6c0,0.7,0.2,1.3,0.5,1.6c0.3,0.3,0.7,0.4,1.2,0.4h0.8l2.4-5.4h2.6l2.9,6.5v-6.5h2.6
		l3,4.8v-4.8h1.7v6.9H66l-3.2-5.2v5.2h-3.5L58.6,25h-3.5l-0.6,1.5h-2c-0.8,0-1.9-0.2-2.5-0.8c-0.6-0.6-0.9-1.4-0.9-2.6
		C49.1,22.2,49.3,21.2,50,20.5z M46.5,19.7h1.7v6.9h-1.7V19.7z M38.6,19.7h3.9c0.9,0,1.5,0,2.1,0.3c0.5,0.3,0.9,0.8,0.9,1.5
		c0,1.1-0.8,1.7-1.2,1.8c0.4,0.1,0.7,0.4,0.8,0.6c0.2,0.3,0.3,0.7,0.3,1.3v1.4h-1.7v-0.9c0-0.4,0-1-0.3-1.3
		c-0.2-0.2-0.6-0.3-1.2-0.3h-1.8v2.5h-1.7L38.6,19.7z M31.8,19.7h5.7v1.4h-4v1.2h3.9v1.4h-3.9v1.4h4v1.4h-5.7V19.7z"/>
</g>
</svg>
