<?xml version="1.0" encoding="UTF-8"?>
<svg width="37px" height="35px" viewBox="0 0 37 35" version="1.1" xmlns="http://www.w3.org/2000/svg" xmlns:xlink="http://www.w3.org/1999/xlink">
    <!-- Generator: Sketch 64 (93537) - https://sketch.com -->
    <title>Group 15</title>
    <desc>Created with Sketch.</desc>
    <g id="Artboards" stroke="none" stroke-width="1" fill="none" fill-rule="evenodd">
        <g id="Home-Desktop-1" transform="translate(-1795.000000, -96.000000)" fill="#008ADA">
            <g id="Group-15" transform="translate(1795.750000, 96.623654)">
                <rect id="Rectangle" x="14.7826087" y="4.43478261" width="20.6956522" height="1.47826087" rx="0.739130435"></rect>
                <rect id="Rectangle" x="0" y="4.43478261" width="7.39130435" height="1.47826087" rx="0.739130435"></rect>
                <path d="M11.0869565,10.3478261 C13.9444298,10.3478261 16.2608696,8.03138631 16.2608696,5.17391304 C16.2608696,2.31643977 13.9444298,0 11.0869565,0 C8.22948325,0 5.91304348,2.31643977 5.91304348,5.17391304 C5.91304348,8.03138631 8.22948325,10.3478261 11.0869565,10.3478261 Z M11.0869565,8.86956522 C9.04590419,8.86956522 7.39130435,7.21496538 7.39130435,5.17391304 C7.39130435,3.13286071 9.04590419,1.47826087 11.0869565,1.47826087 C13.1280089,1.47826087 14.7826087,3.13286071 14.7826087,5.17391304 C14.7826087,7.21496538 13.1280089,8.86956522 11.0869565,8.86956522 Z" id="Oval" fill-rule="nonzero"></path>
                <rect id="Rectangle" x="0" y="16.2608696" width="26.6086957" height="1.47826087" rx="0.739130435"></rect>
                <path d="M30.3043478,22.173913 C33.1618211,22.173913 35.4782609,19.8574733 35.4782609,17 C35.4782609,14.1425267 33.1618211,11.826087 30.3043478,11.826087 C27.4468746,11.826087 25.1304348,14.1425267 25.1304348,17 C25.1304348,19.8574733 27.4468746,22.173913 30.3043478,22.173913 Z M30.3043478,20.6956522 C28.2632955,20.6956522 26.6086957,19.0410523 26.6086957,17 C26.6086957,14.9589477 28.2632955,13.3043478 30.3043478,13.3043478 C32.3454002,13.3043478 34,14.9589477 34,17 C34,19.0410523 32.3454002,20.6956522 30.3043478,20.6956522 Z" id="Oval" fill-rule="nonzero"></path>
                <rect id="Rectangle" x="0" y="28.0869565" width="14.7826087" height="1.47826087" rx="0.739130435"></rect>
                <rect id="Rectangle" x="22.173913" y="28.0869565" width="13.3043478" height="1.47826087" rx="0.739130435"></rect>
                <path d="M18.4782609,34 C21.3357341,34 23.6521739,31.6835602 23.6521739,28.826087 C23.6521739,25.9686137 21.3357341,23.6521739 18.4782609,23.6521739 C15.6207876,23.6521739 13.3043478,25.9686137 13.3043478,28.826087 C13.3043478,31.6835602 15.6207876,34 18.4782609,34 Z M18.4782609,32.5217391 C16.4372085,32.5217391 14.7826087,30.8671393 14.7826087,28.826087 C14.7826087,26.7850346 16.4372085,25.1304348 18.4782609,25.1304348 C20.5193132,25.1304348 22.173913,26.7850346 22.173913,28.826087 C22.173913,30.8671393 20.5193132,32.5217391 18.4782609,32.5217391 Z" id="Oval" fill-rule="nonzero"></path>
            </g>
        </g>
    </g>
</svg>