<?xml version="1.0" encoding="UTF-8"?>
<svg width="35px" height="32px" viewBox="0 0 35 32" version="1.1" xmlns="http://www.w3.org/2000/svg" xmlns:xlink="http://www.w3.org/1999/xlink">
    <!-- Generator: Sketch 64 (93537) - https://sketch.com -->
    <title>icon/question</title>
    <desc>Created with Sketch.</desc>
    <defs>
        <path d="M18,3 C19.7337678,3 21.2113177,4.12323858 21.6310149,5.66884138 C26.2319181,7.05387751 30,11.118576 30,15.825 L30,19.8048728 L32.7803301,22.4461864 C32.9209824,22.5798061 33,22.7610333 33,22.95 L33,26.5125 C33,26.9060029 32.6642136,27.225 32.25,27.225 L24.3658779,27.2255907 C23.4310841,29.7420469 20.9066794,31.5 18,31.5 C15.0935958,31.5 12.5690637,29.7423206 11.6341598,27.2256788 L3.75,27.225 C3.33578644,27.225 3,26.9060029 3,26.5125 L3,22.95 C3,22.7610333 3.07901763,22.5798061 3.21966991,22.4461864 L6,19.8048728 L6,15.825 C6,11.2183228 9.76808189,7.05387751 14.3689851,5.66884138 C14.7886823,4.12323858 16.2662322,3 18,3 Z M22.7451716,27.2259993 L13.2545804,27.2255005 C14.1034792,28.9249567 15.9271092,30.075 18,30.075 C20.0728438,30.075 21.8962218,28.9250462 22.7451716,27.2259993 Z M18,4.425 C16.8555567,4.425 15.8966089,5.24138905 15.7652888,6.31140336 C15.7298673,6.60002222 15.5135043,6.83929019 15.2185076,6.91606862 C10.9354904,8.03080456 7.5,12.0246735 7.5,16.0064228 L7.5,20.1 C7.5,20.2889667 7.42098237,20.4701939 7.28033009,20.6038136 L4.5,23.2451272 L4.5,25.8 L31.5,25.8 L31.5,23.2451272 L28.7196699,20.6038136 C28.5790176,20.4701939 28.5,20.2889667 28.5,20.1 L28.5,16.0064228 C28.5,12.3011627 25.0645096,8.03080456 20.7814924,6.91606862 C20.4864957,6.83929019 20.2701327,6.60002222 20.2347112,6.31140336 C20.1033911,5.24138905 19.1444433,4.425 18,4.425 Z M23.3116973,2.3560079 C23.463353,1.97055564 23.8987649,1.78102603 24.2842172,1.93268166 C30.4111171,4.34330154 34.5,10.0567368 34.5,16.5 C34.5,16.9142136 34.1642136,17.25 33.75,17.25 C33.3357864,17.25 33,16.9142136 33,16.5 C33,10.6874581 29.3006446,5.51831328 23.7350236,3.32852777 C23.3495713,3.17687214 23.1600417,2.74146016 23.3116973,2.3560079 Z M11.7518139,1.91855304 C12.1376135,1.76778317 12.572589,1.9583124 12.7233588,2.34411198 C12.8741287,2.72991157 12.6835995,3.16488706 12.2977999,3.31565693 C6.71486627,5.4974586 3,10.6753085 3,16.5 C3,16.9142136 2.66421356,17.25 2.25,17.25 C1.83578644,17.25 1.5,16.9142136 1.5,16.5 C1.5,10.0432984 5.60595167,4.32034632 11.7518139,1.91855304 Z M6.32864744,1.44940398 C6.66576297,1.20872579 7.13415733,1.28690371 7.37483552,1.62401924 C7.61551371,1.96113478 7.53733579,2.42952914 7.20022026,2.67020733 C5.21423088,4.08807235 3.55277854,5.88282481 2.32883445,7.93522772 C2.11667971,8.29098499 1.65629605,8.40739785 1.30053878,8.1952431 C0.944781499,7.98308836 0.828368645,7.5227047 1.04052339,7.16694743 C2.37131167,4.93538001 4.17503837,2.98693836 6.32864744,1.44940398 Z M28.6833216,1.66228375 C28.9252471,1.32606221 29.3939279,1.24962018 29.7301494,1.49154569 C31.8513665,3.01785044 33.6299076,4.94393615 34.9472892,7.14654072 C35.159904,7.50202328 35.0440867,7.96255713 34.6886042,8.17517187 C34.3331216,8.38778661 33.8725878,8.27196936 33.659973,7.91648681 C32.4483568,5.89071742 30.8101304,4.11658657 28.8540597,2.70911158 C28.5178381,2.46718607 28.4413961,1.99850529 28.6833216,1.66228375 Z" id="path-1"></path>
    </defs>
    <g id="Artboards" stroke="none" stroke-width="1" fill="none" fill-rule="evenodd">
        <g id="Home-Desktop-1" transform="translate(-1727.000000, -97.000000)">
            <g id="icon/alert" transform="translate(1726.500000, 96.623654)">
                <mask id="mask-2" fill="white">
                    <use xlink:href="#path-1"></use>
                </mask>
                <g id="Combined-Shape" fill-rule="nonzero"></g>
                <g id="swatch/openpath-blue" mask="url(#mask-2)" fill="#008ADA" fill-rule="evenodd">
                    <rect id="Rectangle" x="0" y="0" width="36" height="36"></rect>
                </g>
            </g>
        </g>
    </g>
</svg>