<?xml version="1.0" encoding="UTF-8"?>
<svg width="25px" height="26px" viewBox="0 0 25 26" version="1.1" xmlns="http://www.w3.org/2000/svg" xmlns:xlink="http://www.w3.org/1999/xlink">
    <!-- Generator: Sketch 64 (93537) - https://sketch.com -->
    <title>icon/download</title>
    <desc>Created with Sketch.</desc>
    <defs>
        <path d="M6.76790365,5.33032172 C7.13609348,5.33032172 7.43457031,5.62879855 7.43457031,5.99698839 C7.43457031,6.36517822 7.13609348,6.66365505 6.76790365,6.66365505 L6.76790365,6.66365505 L4,6.66365505 C2.88239149,6.66365505 2,7.46819134 2,8.42836963 L2,8.42836963 L2,21.1207021 C2,22.0808804 2.88239149,22.8854167 4,22.8854167 L4,22.8854167 L22.6666667,22.8854167 C23.7842752,22.8854167 24.6666667,22.0808804 24.6666667,21.1207021 L24.6666667,21.1207021 L24.6666667,8.42836963 C24.6666667,7.46819134 23.7842752,6.66365505 22.6666667,6.66365505 L22.6666667,6.66365505 L20.1402995,6.66365505 C19.7721096,6.66365505 19.4736328,6.36517822 19.4736328,5.99698839 C19.4736328,5.62879855 19.7721096,5.33032172 20.1402995,5.33032172 L20.1402995,5.33032172 L22.6666667,5.33032172 C24.4945768,5.33032172 26,6.70291835 26,8.42836963 L26,8.42836963 L26,21.1207021 C26,22.8461534 24.4945768,24.21875 22.6666667,24.21875 L22.6666667,24.21875 L4,24.21875 C2.17208985,24.21875 0.666666667,22.8461534 0.666666667,21.1207021 L0.666666667,21.1207021 L0.666666667,8.42836963 C0.666666667,6.70291835 2.17208985,5.33032172 4,5.33032172 L4,5.33032172 Z M13.1369148,0.55578586 C13.4716328,0.55578586 13.7487368,0.802460929 13.7963531,1.12393741 L13.8035814,1.22245253 L13.8026215,16.0337859 L17.6938252,12.1433239 C17.8890873,11.9480618 18.2056698,11.9480618 18.4009319,12.1433239 L18.6366342,12.3790262 C18.8318963,12.5742883 18.8318963,12.8908708 18.6366342,13.086133 L13.6868867,18.0358804 C13.6217993,18.1009678 13.5432319,18.1443594 13.4601712,18.1660552 L13.3759454,18.1805191 L13.2907212,18.1805191 C13.1773108,18.1708765 13.0665631,18.1226636 12.9797799,18.0358804 L8.03003247,13.086133 C7.83477033,12.8908708 7.83477033,12.5742883 8.03003247,12.3790262 L8.26573473,12.1433239 C8.46099688,11.9480618 8.77757937,11.9480618 8.97284152,12.1433239 L12.4696215,15.6407859 L12.4702481,1.22245253 C12.4702481,0.887734496 12.7169232,0.610630516 13.0383997,0.563014238 L13.1369148,0.55578586 Z" id="path-1"></path>
    </defs>
    <g id="Symbols" stroke="none" stroke-width="1" fill="none" fill-rule="evenodd">
        <g id="icon/download" transform="translate(12.000000, 13.000000) rotate(-90.000000) translate(-12.000000, -13.000000) translate(-4.000000, -3.000000)">
            <g id="color" transform="translate(2.666667, 4.000000)">
                <mask id="mask-2" fill="white">
                    <use xlink:href="#path-1"></use>
                </mask>
                <g id="Mask" fill-rule="nonzero"></g>
                <g id="swatch/openpath-blue" mask="url(#mask-2)" fill="#008ADA">
                    <g transform="translate(-2.666667, -4.000000)" id="Rectangle">
                        <rect x="0" y="0" width="32" height="32"></rect>
                    </g>
                </g>
            </g>
        </g>
    </g>
</svg>