<?xml version="1.0" encoding="utf-8"?>
<!-- Generator: Adobe Illustrator 24.1.0, SVG Export Plug-In . SVG Version: 6.00 Build 0)  -->
<svg version="1.1" id="Layer_1" xmlns="http://www.w3.org/2000/svg" xmlns:xlink="http://www.w3.org/1999/xlink" x="0px" y="0px"
	 viewBox="0 0 94 82" style="enable-background:new 0 0 94 82;" xml:space="preserve">
<style type="text/css">
	.st0{fill-rule:evenodd;clip-rule:evenodd;fill:#AAAAAA;}
</style>
<desc>Created with Sketch.</desc>
<g id="icon_x2F_2_x2F_helper">
	<g id="Group">
		<path id="Fill-1" class="st0" d="M46.6,67c-4.9,0-9.7-0.7-14.3-2.2l-4.1-1.3L24.7,66c-2.6,1.8-6.2,3.9-10.5,5.3
			c1.3-2.2,2.6-4.7,3.6-7.3l1.9-5.1l-3.7-4c-3.3-3.5-7.2-9.3-7.2-17c0-16.1,17-29.1,37.9-29.1s37.9,13.1,37.9,29.1S67.5,67,46.6,67
			 M0,37.9c0,8.7,3.6,16.6,9.6,23C6.9,68,1.3,74.1,1.2,74.2c-1.2,1.3-1.5,3.1-0.8,4.7s2.3,2.6,4,2.6c11.2,0,20-4.7,25.3-8.4
			c5.3,1.7,10.9,2.6,16.9,2.6c25.7,0,46.6-16.9,46.6-37.9S72.3,0,46.6,0S0,16.9,0,37.9z"/>
		<path id="Combined-Shape" class="st0" d="M37,22.3c3.1,0,5.6,2.5,5.6,5.6c0,0.2,0,0.4,0,0.6c-3.9,0.4-7.4,1.4-10,2.7
			c-0.7-0.9-1.1-2.1-1.1-3.3C31.5,24.8,34,22.3,37,22.3z"/>
		<path id="Combined-Shape_1_" class="st0" d="M56.4,22.3c3.1,0,5.6,2.5,5.6,5.6c0,1.3-0.4,2.5-1.2,3.4c-2.6-1.4-6-2.4-9.9-2.8
			c0-0.2,0-0.4,0-0.6C50.8,24.8,53.3,22.3,56.4,22.3z"/>
		<path id="Combined-Shape_2_" class="st0" d="M65.2,38.4c0.1,0.6,0.2,1.2,0.2,1.8c0,6.6-8.4,12-18.8,12s-18.8-5.4-18.8-12
			c0-0.6,0.1-1.2,0.2-1.8c1.4,4.2,9.2,7.4,18.6,7.4c9.3,0,17.1-3.2,18.6-7.3V38.4z"/>
	</g>
</g>
</svg>
