<?xml version="1.0" encoding="utf-8"?>
<!-- Generator: Adobe Illustrator 24.1.0, SVG Export Plug-In . SVG Version: 6.00 Build 0)  -->
<svg version="1.1" id="Layer_1" xmlns="http://www.w3.org/2000/svg" xmlns:xlink="http://www.w3.org/1999/xlink" x="0px" y="0px"
	 viewBox="0 0 13 19" style="enable-background:new 0 0 13 19;" xml:space="preserve">
	<style type="text/css">
		.st0{fill:#043B7C;}
	</style>
<desc>Created with Sketch.</desc>
<g>
	<path class="st0" d="M5,15.4c-0.2,0-0.4-0.2-0.3-0.5s0.2-0.4,0.5-0.3c0.3,0.1,0.6,0.1,0.9,0.1c2.9,0,5.3-2.4,5.3-5.3
		c0-1.6-0.7-3-1.9-4C9.3,5.3,9.2,5,9.4,4.9s0.4-0.2,0.6,0c1.4,1.1,2.2,2.8,2.2,4.6c0,3.3-2.7,6.1-6.1,6.1C5.7,15.5,5.4,15.5,5,15.4z
		"/>
	<path class="st0" d="M7.2,3.5c0.2,0,0.4,0.3,0.3,0.5c0,0.2-0.3,0.4-0.5,0.3c-0.3-0.1-0.7-0.1-1-0.1c-2.9,0-5.3,2.4-5.3,5.3
		c0,1.6,0.7,3,1.9,4c0.2,0.1,0.2,0.4,0,0.6c-0.1,0.2-0.4,0.2-0.6,0C0.8,13,0,11.3,0,9.5c0-3.3,2.7-6.1,6.1-6.1
		C6.4,3.4,6.8,3.4,7.2,3.5z"/>
	<path class="st0" d="M7.8,4.1L4.9,7C4.8,7.1,4.5,7.1,4.4,7c-0.2-0.2-0.2-0.4,0-0.6l2.6-2.6L4.4,1.3c-0.2-0.2-0.2-0.4,0-0.6
		c0.2-0.2,0.4-0.2,0.6,0l2.9,2.9C7.9,3.7,7.9,4,7.8,4.1z"/>
	<path class="st0" d="M4.4,15.4l2.9,2.9c0.2,0.2,0.4,0.2,0.6,0c0.2-0.2,0.2-0.4,0-0.6l-2.6-2.6l2.6-2.6c0.2-0.2,0.2-0.4,0-0.6
		c-0.2-0.2-0.4-0.2-0.6,0l-2.9,2.9C4.2,15,4.2,15.2,4.4,15.4z"/>
</g>
</svg>
