<?xml version="1.0" encoding="utf-8"?>
<!-- Generator: Adobe Illustrator 24.1.0, SVG Export Plug-In . SVG Version: 6.00 Build 0)  -->
<svg version="1.1" id="Layer_1" xmlns="http://www.w3.org/2000/svg" xmlns:xlink="http://www.w3.org/1999/xlink" x="0px" y="0px"
	 viewBox="0 0 85 59" style="enable-background:new 0 0 85 59;" xml:space="preserve">
<style type="text/css">
	.st0{fill-rule:evenodd;clip-rule:evenodd;fill:#FFFFFF;}
	.st1{fill:#D7D7D7;}
	.st2{fill:#D9222A;}
	.st3{fill:#EE9F2D;}
	.st4{fill:#E1542B;}
</style>
<desc>Created with Sketch.</desc>
<g>
	<path class="st0" d="M8,5.5h68c1.7,0,3,1.3,3,3v42c0,1.7-1.3,3-3,3H8c-1.7,0-3-1.3-3-3v-42C5,6.8,6.3,5.5,8,5.5"/>
	<path class="st1" d="M8,5.5V6h68c1.4,0,2.5,1.1,2.5,2.5v42c0,1.4-1.1,2.5-2.5,2.5H8c-1.4,0-2.5-1.1-2.5-2.5v-42C5.5,7.1,6.6,6,8,6
		V5.5V5C6.1,5,4.5,6.6,4.5,8.5v42C4.5,52.4,6.1,54,8,54h68c1.9,0,3.5-1.6,3.5-3.5v-42C79.5,6.6,77.9,5,76,5H8V5.5z"/>
	<path class="st2" d="M32.1,14.2C40.4,14.2,47,20.9,47,29c0,8.2-6.7,14.8-14.9,14.8c-8.2,0-14.9-6.6-14.9-14.8
		C17.2,20.9,23.9,14.2,32.1,14.2"/>
	<path class="st3" d="M52.7,14.2c8.2,0,14.9,6.6,14.9,14.8c0,8.2-6.7,14.8-14.9,14.8c-8.2,0-14.9-6.6-14.9-14.8
		C37.8,20.9,44.5,14.2,52.7,14.2"/>
	<path class="st2" d="M38.7,34C38.7,34,38.7,34,38.7,34C38.7,34,38.7,34,38.7,34 M38.7,34C38.7,34,38.7,34,38.7,34
		C38.7,34,38.7,34,38.7,34 M38.7,34C38.7,34,38.7,34,38.7,34C38.7,34,38.7,34,38.7,34 M38.7,34C38.7,34,38.7,34,38.7,34
		C38.7,34,38.7,34,38.7,34 M38.7,34C38.7,34,38.7,34,38.7,34C38.7,34,38.7,34,38.7,34 M37.8,29.4c0,1.6,0.3,3.2,0.9,4.6
		C38.1,32.5,37.8,31,37.8,29.4 M37.8,29.3C37.8,29.4,37.8,29.4,37.8,29.3C37.8,29.4,37.8,29.4,37.8,29.3 M37.8,29.3
		C37.8,29.3,37.8,29.3,37.8,29.3C37.8,29.3,37.8,29.3,37.8,29.3 M37.8,29.3C37.8,29.3,37.8,29.3,37.8,29.3
		C37.8,29.3,37.8,29.3,37.8,29.3 M37.8,29.3C37.8,29.3,37.8,29.3,37.8,29.3C37.8,29.3,37.8,29.3,37.8,29.3 M37.8,29.3
		C37.8,29.3,37.8,29.3,37.8,29.3C37.8,29.3,37.8,29.3,37.8,29.3 M37.8,29.3C37.8,29.3,37.8,29.3,37.8,29.3
		C37.8,29.3,37.8,29.3,37.8,29.3 M37.8,29.3C37.8,29.3,37.8,29.3,37.8,29.3C37.8,29.3,37.8,29.3,37.8,29.3 M37.8,29.3
		C37.8,29.3,37.8,29.3,37.8,29.3C37.8,29.3,37.8,29.3,37.8,29.3 M37.8,29.3C37.8,29.3,37.8,29.3,37.8,29.3
		C37.8,29.3,37.8,29.3,37.8,29.3 M37.8,29.2C37.8,29.2,37.8,29.2,37.8,29.2C37.8,29.2,37.8,29.2,37.8,29.2 M37.8,29.2
		C37.8,29.2,37.8,29.2,37.8,29.2C37.8,29.2,37.8,29.2,37.8,29.2 M37.8,29.2C37.8,29.2,37.8,29.2,37.8,29.2
		C37.8,29.2,37.8,29.2,37.8,29.2 M37.8,29.2C37.8,29.2,37.8,29.2,37.8,29.2C37.8,29.2,37.8,29.2,37.8,29.2 M37.8,29.2
		C37.8,29.2,37.8,29.2,37.8,29.2C37.8,29.2,37.8,29.2,37.8,29.2 M37.8,29.2C37.8,29.2,37.8,29.2,37.8,29.2
		C37.8,29.2,37.8,29.2,37.8,29.2 M37.8,29.2C37.8,29.2,37.8,29.2,37.8,29.2C37.8,29.2,37.8,29.2,37.8,29.2 M37.8,29.2
		C37.8,29.2,37.8,29.2,37.8,29.2C37.8,29.2,37.8,29.2,37.8,29.2 M37.8,29.1C37.8,29.2,37.8,29.2,37.8,29.1
		C37.8,29.2,37.8,29.2,37.8,29.1 M37.8,29.1C37.8,29.1,37.8,29.1,37.8,29.1C37.8,29.1,37.8,29.1,37.8,29.1 M37.8,29.1
		C37.8,29.1,37.8,29.1,37.8,29.1C37.8,29.1,37.8,29.1,37.8,29.1 M37.8,29.1C37.8,29.1,37.8,29.1,37.8,29.1
		C37.8,29.1,37.8,29.1,37.8,29.1 M37.8,29.1C37.8,29.1,37.8,29.1,37.8,29.1C37.8,29.1,37.8,29.1,37.8,29.1 M37.8,29.1
		C37.8,29.1,37.8,29.1,37.8,29.1C37.8,29.1,37.8,29.1,37.8,29.1 M37.8,29.1C37.8,29.1,37.8,29.1,37.8,29.1
		C37.8,29.1,37.8,29.1,37.8,29.1 M37.8,29.1C37.8,29.1,37.8,29.1,37.8,29.1C37.8,29.1,37.8,29.1,37.8,29.1 M37.8,29.1
		C37.8,29.1,37.8,29.1,37.8,29.1C37.8,29.1,37.8,29.1,37.8,29.1 M37.8,29C37.8,29,37.8,29,37.8,29C37.8,29,37.8,29,37.8,29 M37.8,29
		C37.8,29,37.8,29,37.8,29C37.8,29,37.8,29,37.8,29 M37.8,29C37.8,29,37.8,29,37.8,29C37.8,29,37.8,29,37.8,29 M37.8,29
		C37.8,29,37.8,29,37.8,29C37.8,29,37.8,29,37.8,29 M37.8,29C37.8,29,37.8,29,37.8,29C37.8,29,37.8,29,37.8,29 M37.8,29
		C37.8,29,37.8,29,37.8,29C37.8,29,37.8,29,37.8,29 M37.8,28.9C37.8,29,37.8,29,37.8,28.9C37.8,29,37.8,29,37.8,28.9 M37.8,28.9
		C37.8,28.9,37.8,28.9,37.8,28.9C37.8,28.9,37.8,28.9,37.8,28.9 M37.8,28.9C37.8,28.9,37.8,28.9,37.8,28.9
		C37.8,28.9,37.8,28.9,37.8,28.9 M37.8,28.9C37.8,28.9,37.8,28.9,37.8,28.9C37.8,28.9,37.8,28.9,37.8,28.9 M37.8,28.9
		C37.8,28.9,37.8,28.9,37.8,28.9C37.8,28.9,37.8,28.9,37.8,28.9 M37.8,28.9C37.8,28.9,37.8,28.9,37.8,28.9
		C37.8,28.9,37.8,28.9,37.8,28.9 M37.8,28.9C37.8,28.9,37.8,28.9,37.8,28.9C37.8,28.9,37.8,28.9,37.8,28.9 M37.8,28.9
		C37.8,28.9,37.8,28.9,37.8,28.9C37.8,28.9,37.8,28.9,37.8,28.9 M37.8,28.9C37.8,28.9,37.8,28.9,37.8,28.9
		C37.8,28.9,37.8,28.9,37.8,28.9 M37.8,28.8C37.8,28.8,37.8,28.8,37.8,28.8C37.8,28.8,37.8,28.8,37.8,28.8 M37.8,28.8
		C37.8,28.8,37.8,28.8,37.8,28.8C37.8,28.8,37.8,28.8,37.8,28.8 M37.8,28.8C37.8,28.8,37.8,28.8,37.8,28.8
		C37.8,28.8,37.8,28.8,37.8,28.8 M37.8,28.8C37.8,28.8,37.8,28.8,37.8,28.8C37.8,28.8,37.8,28.8,37.8,28.8 M37.8,28.8
		C37.8,28.8,37.8,28.8,37.8,28.8C37.8,28.8,37.8,28.8,37.8,28.8 M37.8,28.8C37.8,28.8,37.8,28.8,37.8,28.8
		C37.8,28.8,37.8,28.8,37.8,28.8 M37.8,28.8C37.8,28.8,37.8,28.8,37.8,28.8C37.8,28.8,37.8,28.8,37.8,28.8 M37.8,28.8
		C37.8,28.8,37.8,28.8,37.8,28.8C37.8,28.8,37.8,28.8,37.8,28.8 M37.8,28.7C37.8,28.7,37.8,28.7,37.8,28.7
		C37.8,28.7,37.8,28.7,37.8,28.7 M37.8,28.7C37.8,28.7,37.8,28.7,37.8,28.7C37.8,28.7,37.8,28.7,37.8,28.7 M37.8,28.7
		C37.8,28.7,37.8,28.7,37.8,28.7C37.8,28.7,37.8,28.7,37.8,28.7 M37.8,28.7C37.8,28.7,37.8,28.7,37.8,28.7
		C37.8,28.7,37.8,28.7,37.8,28.7 M37.8,28.7C37.8,28.7,37.8,28.7,37.8,28.7C37.8,28.7,37.8,28.7,37.8,28.7 M37.8,28.7
		C37.8,28.7,37.8,28.7,37.8,28.7C37.8,28.7,37.8,28.7,37.8,28.7 M37.8,28.7C37.8,28.7,37.8,28.7,37.8,28.7
		C37.8,28.7,37.8,28.7,37.8,28.7"/>
	<path class="st4" d="M42.4,18.3L42.4,18.3c-2.8,2.7-4.5,6.3-4.6,10.3c0,0,0,0,0,0c0,0,0,0,0,0c0,0,0,0,0,0c0,0,0,0,0,0c0,0,0,0,0,0
		c0,0,0,0,0,0c0,0,0,0,0,0c0,0,0,0,0,0c0,0,0,0,0,0c0,0,0,0,0,0c0,0,0,0,0,0c0,0,0,0,0,0c0,0,0,0,0,0c0,0,0,0,0,0c0,0,0,0,0,0
		c0,0,0,0,0,0c0,0,0,0,0,0c0,0,0,0,0,0c0,0,0,0,0,0c0,0,0,0,0,0c0,0,0,0,0,0c0,0,0,0,0,0c0,0,0,0,0,0c0,0,0,0,0,0c0,0,0,0,0,0
		c0,0,0,0,0,0c0,0,0,0,0,0c0,0,0,0,0,0c0,0,0,0,0,0c0,0,0,0,0,0c0,0,0,0,0,0c0,0,0,0,0,0c0,0,0,0,0,0c0,0,0,0,0,0c0,0,0,0,0,0
		c0,0,0,0,0,0c0,0,0,0,0,0c0,0,0,0,0,0c0,0,0,0,0,0c0,0,0,0,0,0c0,0,0,0,0,0c0,0,0,0,0,0c0,0,0,0,0,0c0,0,0,0,0,0c0,0,0,0,0,0
		c0,0,0,0,0,0c0,0,0,0,0,0c0,0,0,0,0,0c0,0,0,0,0,0c0,0,0,0,0,0c0,0,0,0,0,0c0,0,0,0,0,0c0,0,0,0,0,0c0,0,0,0,0,0c0,0,0,0,0,0
		c0,0,0,0,0,0l0,0c0,0,0,0,0,0c0,0,0,0,0,0c0,0,0,0,0,0c0,0,0,0,0,0c0,0,0,0,0,0c0,0,0,0,0,0c0,0,0,0,0,0c0,0,0,0,0,0c0,0,0,0,0,0
		c0,0,0,0,0,0c0,0,0,0,0,0c0,0,0,0,0,0c0,0,0,0,0,0c0,0,0,0,0,0c0,0,0,0,0,0c0,0,0,0,0,0c0,0,0,0,0,0c0,0,0,0,0,0c0,0,0,0,0,0
		c0,0,0,0,0,0c0,0,0,0,0,0c0,0,0,0,0,0c0,0,0,0,0,0c0,0,0,0,0,0c0,0,0,0,0,0c0,0,0,0,0,0c0,0,0,0,0,0c0,0,0,0,0,0c0,0,0,0,0,0
		c0,0,0,0,0,0c0,0,0,0,0,0c0,0,0,0,0,0c0,0,0,0,0,0c0,0,0,0,0,0c0,0,0,0,0,0c0,0,0,0,0,0c0,0,0,0,0,0c0,0,0,0,0,0c0,0,0,0,0,0
		c0,0,0,0,0,0c0,0,0,0,0,0c0,0,0,0,0,0c0,0,0,0,0,0c0,0,0,0,0,0c0,0,0,0,0,0c0,0,0,0,0,0c0,0,0,0,0,0c0,0,0,0,0,0c0,0,0,0,0,0
		c0,0,0,0,0,0c0,0,0,0,0,0c0,0,0,0,0,0c0,0,0,0,0,0c0,0,0,0,0,0c0,0,0,0,0,0c0,0,0,0,0,0c0,0,0,0,0,0c0,1.6,0.3,3.2,0.9,4.6
		c0,0,0,0,0,0c0,0,0,0,0,0c0,0,0,0,0,0c0,0,0,0,0,0c0,0,0,0,0,0c0,0,0,0,0,0c0,0,0,0,0,0c0,0,0,0,0,0c0,0,0,0,0,0c0,0,0,0,0,0
		c0.8,2.2,2.1,4.1,3.7,5.7C45.3,37,47,33.2,47,29C47,24.8,45.3,21,42.4,18.3"/>
</g>
</svg>
