<?xml version="1.0" encoding="utf-8"?>
<!-- Generator: Adobe Illustrator 24.1.0, SVG Export Plug-In . SVG Version: 6.00 Build 0)  -->
<svg version="1.1" id="Layer_1" xmlns="http://www.w3.org/2000/svg" xmlns:xlink="http://www.w3.org/1999/xlink" x="0px" y="0px"
     viewBox="0 0 85 59" style="enable-background:new 0 0 85 59;" xml:space="preserve">
<style type="text/css">
    .st0{fill-rule:evenodd;clip-rule:evenodd;fill:#FFFFFF;}
    .st1{fill:none;stroke:#D7D7D7;}
    .st2{fill:#0E4595;}
    .st3{fill:#F2AE14;}
</style>
<desc>Created with Sketch.</desc>
<g>
    <path class="st0" d="M8,5.5h68c1.7,0,3,1.3,3,3v42c0,1.7-1.3,3-3,3H8c-1.7,0-3-1.3-3-3v-42C5,6.8,6.3,5.5,8,5.5z"/>
    <path class="st1" d="M8,5.5h68c1.7,0,3,1.3,3,3v42c0,1.7-1.3,3-3,3H8c-1.7,0-3-1.3-3-3v-42C5,6.8,6.3,5.5,8,5.5z"/>
    <path class="st2" d="M33.7,38.2l3-18h4.8l-3,18H33.7z M55.9,20.6c-1-0.4-2.4-0.8-4.3-0.8c-4.7,0-8.1,2.4-8.1,5.9
        c0,2.6,2.4,4,4.2,4.9c1.9,0.9,2.5,1.4,2.5,2.2c0,1.2-1.5,1.8-2.9,1.8c-1.9,0-2.9-0.3-4.5-0.9l-0.6-0.3l-0.7,4
        c1.1,0.5,3.2,0.9,5.3,1c5,0,8.3-2.4,8.4-6.2c0-2-1.3-3.6-4-4.9c-1.7-0.8-2.7-1.4-2.7-2.2c0-0.7,0.9-1.5,2.7-1.5
        c1.6,0,2.7,0.3,3.6,0.7l0.4,0.2L55.9,20.6 M68.2,20.2h-3.7c-1.1,0-2,0.3-2.5,1.5l-7.1,16.5h5c0,0,0.8-2.2,1-2.7c0.6,0,5.4,0,6.1,0
        c0.1,0.6,0.6,2.7,0.6,2.7h4.5L68.2,20.2L68.2,20.2z M62.3,31.8c0.4-1,1.9-5,1.9-5c0,0,0.4-1,0.6-1.7l0.3,1.6c0,0,0.9,4.3,1.1,5.2
        L62.3,31.8L62.3,31.8z M29.6,20.2l-4.7,12.3L24.4,30c-0.9-2.9-3.6-6-6.6-7.6l4.3,15.8l5.1,0l7.6-18H29.6"/>
    <path class="st3" d="M20.6,20.2h-7.7l-0.1,0.4c6,1.5,10,5.1,11.7,9.4l-1.7-8.3C22.5,20.5,21.6,20.2,20.6,20.2"/>
</g>
</svg>